<mxfile host="app.diagrams.net" modified="2024-06-06T15:22:58.460Z" agent="Mozilla/5.0 (Windows NT 10.0; Win64; x64) AppleWebKit/537.36 (KHTML, like Gecko) Chrome/125.0.0.0 Safari/537.36" etag="V-Wy6UaOkvdMeBZue_Rp" version="24.4.15" type="device">
  <diagram name="Страница — 1" id="dmvXi3IDFsStKCT_R7cx">
    <mxGraphModel dx="1050" dy="522" grid="1" gridSize="10" guides="1" tooltips="1" connect="1" arrows="1" fold="1" page="1" pageScale="1" pageWidth="827" pageHeight="1169" math="0" shadow="0">
      <root>
        <mxCell id="0" />
        <mxCell id="1" parent="0" />
        <mxCell id="slYGLJn5OV_bXwr1VQmd-5" style="edgeStyle=orthogonalEdgeStyle;rounded=0;orthogonalLoop=1;jettySize=auto;html=1;entryX=0.5;entryY=0;entryDx=0;entryDy=0;endArrow=blockThin;endFill=1;" parent="1" source="slYGLJn5OV_bXwr1VQmd-1" target="slYGLJn5OV_bXwr1VQmd-2" edge="1">
          <mxGeometry relative="1" as="geometry" />
        </mxCell>
        <mxCell id="slYGLJn5OV_bXwr1VQmd-1" value="&lt;div style=&quot;line-height: 19px; white-space: pre;&quot;&gt;&lt;span style=&quot;background-color: rgb(255, 255, 255);&quot;&gt;&lt;font face=&quot;Helvetica&quot; style=&quot;font-size: 14px;&quot; color=&quot;#030000&quot;&gt;calculate_chars(line, s_char)&lt;/font&gt;&lt;/span&gt;&lt;/div&gt;" style="rounded=1;whiteSpace=wrap;html=1;arcSize=0;" parent="1" vertex="1">
          <mxGeometry x="290" y="100" width="212.5" height="50" as="geometry" />
        </mxCell>
        <mxCell id="slYGLJn5OV_bXwr1VQmd-8" style="edgeStyle=orthogonalEdgeStyle;rounded=0;orthogonalLoop=1;jettySize=auto;html=1;exitX=0.5;exitY=1;exitDx=0;exitDy=0;entryX=0.5;entryY=0;entryDx=0;entryDy=0;strokeColor=default;align=center;verticalAlign=middle;fontFamily=Helvetica;fontSize=11;fontColor=default;labelBackgroundColor=default;endArrow=blockThin;endFill=1;" parent="1" source="slYGLJn5OV_bXwr1VQmd-2" target="slYGLJn5OV_bXwr1VQmd-7" edge="1">
          <mxGeometry relative="1" as="geometry" />
        </mxCell>
        <mxCell id="slYGLJn5OV_bXwr1VQmd-2" value="&lt;font style=&quot;font-size: 14px;&quot;&gt;count = 0&lt;/font&gt;" style="rounded=0;whiteSpace=wrap;html=1;" parent="1" vertex="1">
          <mxGeometry x="336.25" y="200" width="120" height="60" as="geometry" />
        </mxCell>
        <mxCell id="slYGLJn5OV_bXwr1VQmd-10" style="edgeStyle=orthogonalEdgeStyle;rounded=0;orthogonalLoop=1;jettySize=auto;html=1;exitX=0.5;exitY=1;exitDx=0;exitDy=0;strokeColor=default;align=center;verticalAlign=middle;fontFamily=Helvetica;fontSize=11;fontColor=default;labelBackgroundColor=default;endArrow=blockThin;endFill=1;" parent="1" source="slYGLJn5OV_bXwr1VQmd-7" target="slYGLJn5OV_bXwr1VQmd-9" edge="1">
          <mxGeometry relative="1" as="geometry" />
        </mxCell>
        <mxCell id="slYGLJn5OV_bXwr1VQmd-7" value="&lt;font style=&quot;font-size: 14px;&quot;&gt;char in line&lt;/font&gt;" style="shape=loopLimit;whiteSpace=wrap;html=1;fontFamily=Helvetica;fontSize=11;fontColor=default;labelBackgroundColor=default;" parent="1" vertex="1">
          <mxGeometry x="346.26" y="310" width="100" height="50" as="geometry" />
        </mxCell>
        <mxCell id="slYGLJn5OV_bXwr1VQmd-13" style="edgeStyle=orthogonalEdgeStyle;rounded=0;orthogonalLoop=1;jettySize=auto;html=1;exitX=0.5;exitY=1;exitDx=0;exitDy=0;entryX=0.5;entryY=1;entryDx=0;entryDy=0;strokeColor=default;align=center;verticalAlign=middle;fontFamily=Helvetica;fontSize=11;fontColor=default;labelBackgroundColor=default;endArrow=blockThin;endFill=1;" parent="1" source="slYGLJn5OV_bXwr1VQmd-9" target="slYGLJn5OV_bXwr1VQmd-12" edge="1">
          <mxGeometry relative="1" as="geometry" />
        </mxCell>
        <mxCell id="slYGLJn5OV_bXwr1VQmd-14" value="Нет" style="edgeLabel;html=1;align=center;verticalAlign=middle;resizable=0;points=[];fontFamily=Helvetica;fontSize=11;fontColor=default;labelBackgroundColor=default;" parent="slYGLJn5OV_bXwr1VQmd-13" vertex="1" connectable="0">
          <mxGeometry x="-0.28" y="1" relative="1" as="geometry">
            <mxPoint x="13" as="offset" />
          </mxGeometry>
        </mxCell>
        <mxCell id="slYGLJn5OV_bXwr1VQmd-16" style="edgeStyle=orthogonalEdgeStyle;rounded=0;orthogonalLoop=1;jettySize=auto;html=1;exitX=1;exitY=0.5;exitDx=0;exitDy=0;entryX=0;entryY=0.5;entryDx=0;entryDy=0;strokeColor=default;align=center;verticalAlign=middle;fontFamily=Helvetica;fontSize=11;fontColor=default;labelBackgroundColor=default;endArrow=blockThin;endFill=1;" parent="1" source="slYGLJn5OV_bXwr1VQmd-9" target="slYGLJn5OV_bXwr1VQmd-15" edge="1">
          <mxGeometry relative="1" as="geometry" />
        </mxCell>
        <mxCell id="slYGLJn5OV_bXwr1VQmd-17" value="Да" style="edgeLabel;html=1;align=center;verticalAlign=middle;resizable=0;points=[];fontFamily=Helvetica;fontSize=11;fontColor=default;labelBackgroundColor=default;" parent="slYGLJn5OV_bXwr1VQmd-16" vertex="1" connectable="0">
          <mxGeometry x="-0.0406" y="-2" relative="1" as="geometry">
            <mxPoint y="-12" as="offset" />
          </mxGeometry>
        </mxCell>
        <mxCell id="slYGLJn5OV_bXwr1VQmd-9" value="&lt;font style=&quot;font-size: 14px;&quot;&gt;s_char == char&lt;/font&gt;" style="rhombus;whiteSpace=wrap;html=1;fontFamily=Helvetica;fontSize=11;fontColor=default;labelBackgroundColor=default;" parent="1" vertex="1">
          <mxGeometry x="299.38" y="390" width="193.75" height="80" as="geometry" />
        </mxCell>
        <mxCell id="slYGLJn5OV_bXwr1VQmd-23" style="edgeStyle=orthogonalEdgeStyle;rounded=0;orthogonalLoop=1;jettySize=auto;html=1;exitX=0.5;exitY=0;exitDx=0;exitDy=0;entryX=0.5;entryY=0;entryDx=0;entryDy=0;strokeColor=default;align=center;verticalAlign=middle;fontFamily=Helvetica;fontSize=11;fontColor=default;labelBackgroundColor=default;endArrow=blockThin;endFill=1;" parent="1" source="slYGLJn5OV_bXwr1VQmd-12" target="slYGLJn5OV_bXwr1VQmd-22" edge="1">
          <mxGeometry relative="1" as="geometry" />
        </mxCell>
        <mxCell id="slYGLJn5OV_bXwr1VQmd-12" value="&lt;font style=&quot;font-size: 14px;&quot;&gt;char in line&lt;/font&gt;" style="shape=loopLimit;whiteSpace=wrap;html=1;fontFamily=Helvetica;fontSize=11;fontColor=default;labelBackgroundColor=default;direction=west;" parent="1" vertex="1">
          <mxGeometry x="346.25" y="520" width="100" height="50" as="geometry" />
        </mxCell>
        <mxCell id="slYGLJn5OV_bXwr1VQmd-20" style="edgeStyle=elbowEdgeStyle;rounded=0;orthogonalLoop=1;jettySize=auto;html=1;strokeColor=default;align=center;verticalAlign=middle;fontFamily=Helvetica;fontSize=11;fontColor=default;labelBackgroundColor=default;endArrow=blockThin;endFill=1;" parent="1" source="slYGLJn5OV_bXwr1VQmd-15" edge="1">
          <mxGeometry relative="1" as="geometry">
            <mxPoint x="400" y="280" as="targetPoint" />
            <Array as="points">
              <mxPoint x="770" y="380" />
            </Array>
          </mxGeometry>
        </mxCell>
        <mxCell id="slYGLJn5OV_bXwr1VQmd-15" value="&lt;font style=&quot;font-size: 14px;&quot;&gt;count += 1&lt;/font&gt;" style="rounded=0;whiteSpace=wrap;html=1;fontFamily=Helvetica;fontSize=11;fontColor=default;labelBackgroundColor=default;" parent="1" vertex="1">
          <mxGeometry x="580" y="405" width="160" height="50" as="geometry" />
        </mxCell>
        <mxCell id="slYGLJn5OV_bXwr1VQmd-22" value="&lt;font style=&quot;font-size: 14px;&quot;&gt;return count&lt;/font&gt;" style="rounded=1;whiteSpace=wrap;html=1;fontFamily=Helvetica;fontSize=11;fontColor=default;labelBackgroundColor=default;arcSize=0;" parent="1" vertex="1">
          <mxGeometry x="336.26" y="600" width="120" height="60" as="geometry" />
        </mxCell>
      </root>
    </mxGraphModel>
  </diagram>
</mxfile>
